<svg xmlns="http://www.w3.org/2000/svg" width="1024" height="1023.873411" viewBox="13.498722 13.483828 36.985989 36.981417" role="img" aria-label="余白の棚" shape-rendering="geometricPrecision">
  <path d="M 46.09379 50.465245 L 17.99998 50.465245 A 4.465245 4.465245 0 0 1 13.534755 46.000009 L 13.534755 18.568413 A 4.501278 4.501278 0 0 1 17.990663 13.498732 L 45.635484 13.498732 A 4.465012 4.465012 0 0 1 50.454637 18.253047 L 50.454637 45.487851 A 4.460828 4.460828 0 0 1 46.09379 50.465245 Z M 17.286367 41.870547 L 17.270886 45.699215 A 0.981771 0.981771 0 0 0 18.067462 46.730901 L 45.701132 46.730901 A 1.006741 1.006741 0 0 0 46.671836 45.457432 L 46.671836 18.232449 A 0.976724 0.976724 0 0 0 45.516917 17.272524 L 18.061079 17.272524 A 0.962057 0.962057 0 0 0 17.286367 18.315726 L 17.286367 29.353809 L 36.62082 29.353809 L 36.62082 33.094844 L 17.286367 33.094844 L 17.286367 38.172305 L 43.847227 38.172305 L 43.847227 41.870547 L 17.286367 41.870547 Z M 29.287555 20.598203 L 29.289168 24.340633 L 20.045941 24.338855 L 20.04906 20.597766 L 29.287555 20.598203 Z" fill="#4a4636" fill-rule="nonzero" />
</svg>
